<?xml version="1.0" encoding="UTF-8"?>
<svg id="Capa_2" data-name="Capa 2" xmlns="http://www.w3.org/2000/svg" viewBox="0 0 92.93 92.93">
  <defs>
    <style>
      .cls-1 {
        stroke-width: 7px;
      }

      .cls-1, .cls-2 {
        fill: none;
        stroke: #fff;
      }

      .cls-2 {
        stroke-width: 1.31px;
      }

      .cls-3 {
        fill: #fff;
        stroke-width: 0px;
      }
    </style>
  </defs>
  <g id="Capa_1-2" data-name="Capa 1">
    <g>
      <path class="cls-3" d="M60,42.26c-2.65,0-3.73,2.42-3.9,4.1h7.43c.01-1.51-.66-4.1-3.52-4.1ZM46.57,17.41c-16.14,0-29.22,13.08-29.22,29.22s13.08,29.22,29.22,29.22,29.22-13.08,29.22-29.22-13.08-29.22-29.22-29.22ZM42.07,58.74l-2.14-7.15h-8l-1.96,7.15h-6.51l8.49-27.83h8.23l8.66,27.83h-6.78ZM61.84,54.5c2.12,0,3.87-.29,5.56-.86l.85,4.25c-2.09.85-4.61,1.28-7.32,1.28-6.85,0-10.78-3.99-10.78-10.28,0-5.14,3.2-10.81,10.19-10.81,6.55,0,9.02,5.09,9.02,10.09,0,1.09-.11,2.02-.22,2.49h-12.99c.19,2.61,2.76,3.85,5.7,3.85ZM35.87,35.64h-.09c-.41,1.64-.83,3.75-1.27,5.37l-1.67,5.91h6.16l-1.73-5.91c-.48-1.65-.97-3.73-1.4-5.36Z"/>
      <g>
        <path class="cls-2" d="M7.01,45.85l-7-.09M7.2,42.45l-6.97-.62M7.68,39.16l-6.88-1.32M8.45,35.83l-6.76-1.83M9.48,32.67l-6.54-2.49M10.81,29.52l-6.34-2.96M12.37,26.57l-6.03-3.56M14.23,23.69l-5.75-3.99M16.27,21.05l-5.34-4.52M18.53,18.59l-4.89-5.01M21.05,16.27l-4.52-5.34M23.69,14.23l-3.99-5.75M26.57,12.37l-3.56-6.03M29.52,10.81l-2.96-6.34M32.67,9.48l-2.49-6.54M35.83,8.45l-1.83-6.76M39.16,7.68l-1.32-6.87M42.45,7.2l-.62-6.97M45.85,7.01l-.09-7"/>
        <path class="cls-1" d="M3.5,46.46c0,23.73,19.24,42.96,42.96,42.96s42.96-19.24,42.96-42.96S70.19,3.5,46.46,3.5"/>
      </g>
    </g>
  </g>
</svg>