<?xml version="1.0" encoding="UTF-8"?>
<svg id="Capa_2" data-name="Capa 2" xmlns="http://www.w3.org/2000/svg" viewBox="0 0 92.93 92.93">
  <defs>
    <style>
      .cls-1 {
        stroke-width: 7px;
      }

      .cls-1, .cls-2 {
        fill: none;
        stroke: #000;
      }

      .cls-3 {
        fill: #000;
        stroke-width: 0px;
      }

      .cls-2 {
        stroke-width: 1.31px;
      }
    </style>
  </defs>
  <g id="Capa_1-2" data-name="Capa 1">
    <g>
      <path class="cls-2" d="M15.78,21.66l-5.45-4.4M18.08,19.06l-5.06-4.83M20.59,16.66l-4.65-5.24M23.23,14.56l-4.04-5.72M26.12,12.64l-3.55-6.03M29.17,10.99l-3.03-6.31M32.34,9.6l-2.48-6.54M35.63,8.51l-1.91-6.73M38.99,7.71l-1.32-6.87M42.41,7.21l-.72-6.96M45.86,7.01l-.1-7"/>
      <path class="cls-1" d="M12.64,19.97c-5.73,7.3-9.14,16.5-9.14,26.5,0,23.73,19.23,42.96,42.96,42.96s42.96-19.23,42.96-42.96S70.19,3.5,46.46,3.5"/>
    </g>
    <path class="cls-3" d="M57.83,42.74c-2.88,0-4.34,2.55-4.34,5.74,0,3.4,1.68,5.55,4.29,5.55,1.79,0,3.25-1.24,3.63-3.01.1-.43.13-.92.13-1.42v-2.65c0-.35-.01-.78-.08-1.14-.36-1.69-1.73-3.07-3.64-3.07ZM46.46,17.25c-16.14,0-29.22,13.08-29.22,29.22s13.08,29.22,29.22,29.22,29.22-13.08,29.22-29.22-13.08-29.22-29.22-29.22ZM39,58.58l-2.51-5.03c-1.01-1.95-1.7-3.4-2.47-5.01h-.08c-.58,1.61-1.26,3.07-2.17,4.99l-2.3,5.05h-7.17l8.04-14.09-7.76-13.74h7.23l2.44,5.07c.81,1.69,1.42,3.07,2.07,4.63h.11c.67-1.77,1.19-3,1.9-4.61l2.34-5.08h7.19l-7.85,13.58,8.26,14.25h-7.28ZM62.42,58.58l-.26-2.96h-.09c-1.27,2.27-3.72,3.41-6.33,3.41-4.77,0-8.63-4.1-8.63-10.38-.03-6.79,4.23-10.74,9.04-10.74,2.5,0,4.41.89,5.31,2.28h.08v-10.94h6.28v23.28c0,2.29.08,4.68.17,6.04h-5.59Z"/>
  </g>
</svg>