<?xml version="1.0" encoding="UTF-8"?>
<svg id="Capa_2" data-name="Capa 2" xmlns="http://www.w3.org/2000/svg" viewBox="0 0 92.93 92.93">
  <defs>
    <style>
      .cls-1 {
        stroke-width: 7px;
      }

      .cls-1, .cls-2 {
        fill: none;
        stroke: #000;
      }

      .cls-3 {
        fill: #000;
        stroke-width: 0px;
      }

      .cls-2 {
        stroke-width: 1.31px;
      }
    </style>
  </defs>
  <g id="Capa_1-2" data-name="Capa 1">
    <g>
      <g>
        <path class="cls-2" d="M15.78,21.66l-5.45-4.4M18.08,19.06l-5.06-4.83M20.59,16.66l-4.65-5.24M23.23,14.56l-4.04-5.72M26.12,12.64l-3.55-6.03M29.17,10.99l-3.03-6.31M32.34,9.6l-2.48-6.54M35.63,8.51l-1.91-6.73M38.99,7.71l-1.32-6.87M42.41,7.21l-.72-6.96M45.86,7.01l-.1-7"/>
        <path class="cls-1" d="M12.64,19.97c-5.73,7.3-9.14,16.5-9.14,26.5,0,23.73,19.23,42.96,42.96,42.96s42.96-19.23,42.96-42.96S70.19,3.5,46.46,3.5"/>
      </g>
      <path class="cls-3" d="M40.76,35.48h-.09c-.41,1.64-.83,3.75-1.27,5.37l-1.66,5.91h6.16l-1.73-5.91c-.48-1.65-.97-3.73-1.4-5.36ZM46.46,17.25c-16.14,0-29.22,13.08-29.22,29.22s13.08,29.22,29.22,29.22,29.22-13.08,29.22-29.22-13.08-29.22-29.22-29.22ZM46.96,58.58l-2.14-7.15h-8l-1.96,7.15h-6.51l8.49-27.83h8.23l8.66,27.83h-6.78ZM62.79,58.58h-6.29v-20.21h6.29v20.21ZM59.59,35.9c-1.99,0-3.28-1.39-3.27-3.14,0-1.8,1.31-3.15,3.33-3.15s3.3,1.34,3.32,3.15c0,1.75-1.28,3.14-3.38,3.14Z"/>
    </g>
  </g>
</svg>