<?xml version="1.0" encoding="UTF-8"?>
<svg id="Capa_2" data-name="Capa 2" xmlns="http://www.w3.org/2000/svg" viewBox="0 0 92.93 92.93">
  <defs>
    <style>
      .cls-1 {
        stroke-width: 7px;
      }

      .cls-1, .cls-2 {
        fill: none;
        stroke: #000;
      }

      .cls-3 {
        fill: #000;
        stroke-width: 0px;
      }

      .cls-2 {
        stroke-width: 1.31px;
      }
    </style>
  </defs>
  <g id="Capa_1-2" data-name="Capa 1">
    <g>
      <g>
        <path class="cls-2" d="M15.78,21.66l-5.45-4.4M18.08,19.06l-5.06-4.83M20.59,16.66l-4.65-5.24M23.23,14.56l-4.04-5.72M26.12,12.64l-3.55-6.03M29.17,10.99l-3.03-6.31M32.34,9.6l-2.48-6.54M35.63,8.51l-1.91-6.73M38.99,7.71l-1.32-6.87M42.41,7.21l-.72-6.96M45.86,7.01l-.1-7"/>
        <path class="cls-1" d="M12.64,19.97c-5.73,7.3-9.14,16.5-9.14,26.5,0,23.73,19.23,42.96,42.96,42.96s42.96-19.23,42.96-42.96S70.19,3.5,46.46,3.5"/>
      </g>
      <path class="cls-3" d="M39.18,35.31c-1.24,0-2.11.1-2.57.21v8.22c.52.12,1.17.17,2.09.17,3.34,0,5.41-1.69,5.41-4.51,0-2.56-1.75-4.09-4.93-4.09ZM46.46,17.25c-16.14,0-29.22,13.08-29.22,29.22s13.08,29.22,29.22,29.22,29.22-13.08,29.22-29.22-13.08-29.22-29.22-29.22ZM47.79,45.81c-2.15,2.02-5.36,2.95-9.04,2.95-.83,0-1.58-.06-2.15-.14v9.96h-6.24v-27.46c1.94-.32,4.66-.59,8.49-.59s6.65.75,8.52,2.25c1.78,1.38,2.95,3.71,2.95,6.44s-.88,5.05-2.54,6.59ZM59.02,59.02c-2.63,0-5-.6-6.54-1.42l1.14-4.49c1.14.7,3.56,1.5,5.39,1.5s2.71-.64,2.71-1.67-.64-1.55-2.96-2.34c-4.2-1.38-5.78-3.67-5.76-6.04,0-3.8,3.2-6.65,8.22-6.65,2.36,0,4.46.56,5.69,1.18l-1.09,4.33c-.91-.48-2.67-1.14-4.38-1.14-1.53,0-2.41.61-2.41,1.63s.8,1.48,3.28,2.33c3.83,1.3,5.44,3.27,5.47,6.22,0,3.77-2.94,6.55-8.73,6.55Z"/>
    </g>
  </g>
</svg>