<?xml version="1.0" encoding="UTF-8"?>
<svg id="Capa_2" data-name="Capa 2" xmlns="http://www.w3.org/2000/svg" viewBox="0 0 92.93 92.93">
  <defs>
    <style>
      .cls-1 {
        stroke-width: 7px;
      }

      .cls-1, .cls-2 {
        fill: none;
        stroke: #fff;
      }

      .cls-2 {
        stroke-width: 1.31px;
      }

      .cls-3 {
        fill: #fff;
        stroke-width: 0px;
      }
    </style>
  </defs>
  <g id="Capa_1-2" data-name="Capa 1">
    <g>
      <g>
        <path class="cls-2" d="M15.78,21.66l-5.45-4.4M18.08,19.06l-5.06-4.83M20.59,16.66l-4.65-5.24M23.23,14.56l-4.04-5.72M26.12,12.64l-3.55-6.03M29.17,10.99l-3.03-6.31M32.34,9.6l-2.48-6.54M35.63,8.51l-1.91-6.73M38.99,7.71l-1.32-6.87M42.41,7.21l-.72-6.96M45.86,7.01l-.1-7"/>
        <path class="cls-1" d="M12.64,19.97c-5.73,7.3-9.14,16.5-9.14,26.5,0,23.73,19.23,42.96,42.96,42.96s42.96-19.23,42.96-42.96S70.19,3.5,46.46,3.5"/>
      </g>
      <path class="cls-3" d="M63.22,42.1c-2.65,0-3.73,2.42-3.9,4.1h7.43c.01-1.51-.67-4.1-3.52-4.1ZM17.25,46.46c0,4.22.9,8.22,2.51,11.84l1.73-26.99c-2.69,4.42-4.23,9.61-4.23,15.16ZM46.46,17.25c-10.35,0-19.44,5.39-24.63,13.5h8.07l2.71,9.3c.88,3.19,1.74,6.69,2.36,9.95h.13c.76-3.22,1.7-6.89,2.65-9.99l2.96-9.26h8.23l1.49,27.83h-6.12l-.43-10.64c-.13-3.37-.26-7.39-.24-11.46h-.11c-.89,3.56-2.06,7.52-3.1,10.8l-3.41,10.85h-4.89l-3-10.75c-.9-3.28-1.82-7.23-2.51-10.9h-.09c-.14,3.79-.29,8.08-.46,11.55l-.52,10.56h-5.68c4.61,10.08,14.77,17.1,26.58,17.1,16.14,0,29.22-13.08,29.22-29.22s-13.08-29.22-29.22-29.22ZM65.07,54.34c2.12,0,3.87-.29,5.56-.86l.85,4.25c-2.09.85-4.61,1.28-7.32,1.28-6.85,0-10.78-3.99-10.78-10.28,0-5.14,3.2-10.81,10.19-10.81,6.55,0,9.02,5.09,9.02,10.09,0,1.09-.11,2.02-.22,2.49h-12.99c.19,2.61,2.76,3.85,5.7,3.85ZM19.74,58.58h.15c-.04-.09-.09-.19-.13-.28l-.02.28ZM21.52,30.75l-.04.56c.11-.19.24-.37.36-.56h-.32Z"/>
    </g>
  </g>
</svg>