<?xml version="1.0" encoding="UTF-8"?>
<svg id="Capa_2" data-name="Capa 2" xmlns="http://www.w3.org/2000/svg" viewBox="0 0 92.93 92.93">
  <defs>
    <style>
      .cls-1 {
        stroke-width: 7px;
      }

      .cls-1, .cls-2 {
        fill: none;
        stroke: #000;
      }

      .cls-3 {
        fill: #000;
        stroke-width: 0px;
      }

      .cls-2 {
        stroke-width: 1.31px;
      }
    </style>
  </defs>
  <g id="Capa_1-2" data-name="Capa 1">
    <g>
      <path class="cls-3" d="M51.09,42.67c-2.88,0-4.34,2.55-4.34,5.74,0,3.4,1.68,5.55,4.29,5.55,1.79,0,3.25-1.24,3.63-3.01.1-.43.13-.92.13-1.42v-2.65c0-.35-.01-.78-.08-1.14-.36-1.69-1.73-3.07-3.64-3.07ZM46.66,17.17c-16.14,0-29.22,13.08-29.22,29.22s13.08,29.22,29.22,29.22,29.22-13.08,29.22-29.22-13.08-29.22-29.22-29.22ZM36.86,58.51h-6.29v-27.83h6.29v27.83ZM55.68,58.51l-.26-2.96h-.09c-1.27,2.27-3.72,3.41-6.33,3.41-4.77,0-8.63-4.1-8.63-10.38-.03-6.79,4.23-10.74,9.04-10.74,2.5,0,4.41.89,5.31,2.28h.08v-10.94h6.28v23.28c0,2.29.08,4.68.17,6.04h-5.59Z"/>
      <g>
        <path class="cls-2" d="M7.01,45.85l-7-.09M7.2,42.45l-6.97-.62M7.68,39.16l-6.88-1.32M8.45,35.83l-6.76-1.83M9.48,32.67l-6.54-2.49M10.81,29.52l-6.34-2.96M12.37,26.57l-6.03-3.56M14.23,23.69l-5.75-3.99M16.27,21.05l-5.34-4.52M18.53,18.59l-4.89-5.01M21.05,16.27l-4.52-5.34M23.69,14.23l-3.99-5.75M26.57,12.37l-3.56-6.03M29.52,10.81l-2.96-6.34M32.67,9.48l-2.49-6.54M35.83,8.45l-1.83-6.76M39.16,7.68l-1.32-6.87M42.45,7.2l-.62-6.97M45.85,7.01l-.09-7"/>
        <path class="cls-1" d="M3.5,46.46c0,23.73,19.24,42.96,42.96,42.96s42.96-19.24,42.96-42.96S70.19,3.5,46.46,3.5"/>
      </g>
    </g>
  </g>
</svg>